# xmcd
#
# Track frame offsets:
#	183
#	17723
#	31903
#	43508
#	57530
#	70615
#	83493
#	97593
#	111913
#	127955
#	143263
#	158860
#
# Disc length: 2260 seconds
#
# Revision: 1
# Processed by: cddbd v1.4PL0 Copyright (c) Steve Scherf et al.
# Submitted via: EasyCDDAExtractor 5.1.0
#
DISCID=8708d20c
DTITLE=compilation disc - Greece is...
DYEAR=1900
DGENRE=Country
TTITLE0=Syrtaki
TTITLE1=Hassapiko
TTITLE2=Hassaposerviko
TTITLE3=Zeybekiko
TTITLE4=Tsifteteli
TTITLE5=Dirlanda
TTITLE6=Kalamatiano
TTITLE7=Karsilamas
TTITLE8=Ballos
TTITLE9=Tsamiko
TTITLE10=Syrto
TTITLE11=Aptaliko Zeybekiko
EXTD=
EXTT0=
EXTT1=
EXTT2=
EXTT3=
EXTT4=
EXTT5=
EXTT6=
EXTT7=
EXTT8=
EXTT9=
EXTT10=
EXTT11=
PLAYORDER=
